<svg width="35" height="40" viewBox="0 0 35 40" fill="none" xmlns="http://www.w3.org/2000/svg">
<rect width="34.29" height="40" fill="white"/>
<path d="M11.3232 37C-1.87677 28.6 2.82319 9.5 10.3232 10.5L13.5696 10.9638C13.736 10.9875 13.893 11.0549 14.0322 11.1491C15.6364 12.2343 16.9072 11.7468 17.8448 11.8634C18.1572 11.9023 18.4886 11.9153 18.7737 11.782C20.5527 10.95 21.9379 10.6539 23.3232 10.5C26.0457 9.81937 28.4787 11.5033 29.76 12.8421C30.1041 13.2016 30.0524 13.7511 29.6639 14.0621C28.5227 14.9756 26.8411 16.3564 26.3232 20.5C25.8232 24.5 28.8232 26.5 31.3232 27.5C30.6565 29.1667 28.7232 33.2 28.3232 34C27.8232 35 25.3232 36.5 23.3232 37C21.7232 37.4 19.6565 36.1667 18.8232 35.5C17.6565 35.3333 15.1232 35.3 14.3232 36.5C13.5232 37.7 11.9899 37.3333 11.3232 37Z" fill="white"/>
<path d="M16.3232 10.5C16.4899 7.66667 18.2232 2 23.8232 2C23.4899 4.83333 21.5232 10.5 16.3232 10.5Z" fill="white"/>
</svg>
