<svg width="160" height="32" viewBox="0 0 160 32" fill="none" xmlns="http://www.w3.org/2000/svg">
<path d="M16 0L19.5922 11.0557H31.2169L21.8123 17.8885L25.4046 28.9443L16 22.1115L6.59544 28.9443L10.1877 17.8885L0.783095 11.0557H12.4078L16 0Z" fill="#3366FF"/>
<path d="M48 0L51.5922 11.0557H63.2169L53.8123 17.8885L57.4046 28.9443L48 22.1115L38.5954 28.9443L42.1877 17.8885L32.7831 11.0557H44.4078L48 0Z" fill="#3366FF"/>
<path d="M80 0L83.5922 11.0557H95.2169L85.8123 17.8885L89.4046 28.9443L80 22.1115L70.5954 28.9443L74.1877 17.8885L64.7831 11.0557H76.4078L80 0Z" fill="#3366FF"/>
<path d="M112 0L115.592 11.0557H127.217L117.812 17.8885L121.405 28.9443L112 22.1115L102.595 28.9443L106.188 17.8885L96.7831 11.0557H108.408L112 0Z" fill="#3366FF"/>
<path d="M144 0L147.592 11.0557H159.217L149.812 17.8885L153.405 28.9443L144 22.1115L134.595 28.9443L138.188 17.8885L128.783 11.0557H140.408L144 0Z" fill="#3366FF"/>
</svg>
