<svg width="115" height="68" viewBox="0 0 115 68" fill="none" xmlns="http://www.w3.org/2000/svg">
<path d="M2 53.8519C5.52386 46.6439 8.54093 39.1035 15.6831 34.6646C21.1799 31.2484 27.851 31.0487 34.0988 31.0123C46.4242 30.9405 58.443 32.7634 70.2099 27.9774C83.54 22.5555 92.4685 12.2123 102 2" stroke="#102693" stroke-width="3" stroke-linecap="round"/>
<path d="M7 58.8519C10.5239 51.6439 13.5409 44.1035 20.6831 39.6646C26.1799 36.2484 32.851 36.0487 39.0988 36.0123C51.4242 35.9405 63.443 37.7634 75.2099 32.9774C88.54 27.5555 97.4685 17.2123 107 7" stroke="#102693" stroke-width="3" stroke-linecap="round"/>
<path d="M13 65.8519C16.5239 58.6439 19.5409 51.1035 26.6831 46.6646C32.1799 43.2484 38.851 43.0487 45.0988 43.0123C57.4242 42.9405 69.443 44.7634 81.2099 39.9774C94.54 34.5555 103.469 24.2123 113 14" stroke="#102693" stroke-width="3" stroke-linecap="round"/>
</svg>
