<svg width="40" height="40" viewBox="0 0 40 40" fill="none" xmlns="http://www.w3.org/2000/svg">
<path d="M20.1285 36.9441C29.4864 36.9441 37.0725 29.3581 37.0725 20.0002C37.0725 10.6422 29.4864 3.05615 20.1285 3.05615C10.7705 3.05615 3.18445 10.6422 3.18445 20.0002C3.18445 29.3581 10.7705 36.9441 20.1285 36.9441Z" fill="#091A7A"/>
<path d="M9.16003 34.528C12.208 36.832 16.008 38.2 20.128 38.2C30.176 38.2 38.328 30.048 38.328 20C38.328 17.4 37.784 14.928 36.8 12.696" stroke="white" stroke-width="2" stroke-linecap="round" stroke-linejoin="round" stroke-dasharray="4.98 4.98"/>
<path d="M30.7676 5.23205C27.7756 3.07205 24.1036 1.80005 20.1276 1.80005C10.0796 1.80005 1.92761 9.95205 1.92761 20C1.92761 23.24 2.77561 26.288 4.26361 28.9201" stroke="white" stroke-width="2" stroke-linecap="round" stroke-linejoin="round" stroke-dasharray="4.98 4.98"/>
<path d="M7.00801 37.3121L1.53601 31.8401" stroke="white" stroke-miterlimit="10" stroke-linecap="round" stroke-linejoin="round"/>
<path d="M14.6644 28.2881L27.2644 15.6881C27.3924 15.5601 27.4644 15.4001 27.4804 15.2241L27.7124 12.0561L28.7044 11.0641L28.5524 10.9121L29.2964 10.0721C29.3284 10.0401 29.3204 9.98407 29.2724 9.93607L28.9124 9.57607C28.8724 9.53607 28.8084 9.52807 28.7764 9.55207L27.9364 10.2961L27.7844 10.1441L26.7924 11.1361L23.6244 11.3681C23.4324 11.3921 23.2724 11.4641 23.1604 11.5841L10.5524 24.1841L10.1524 23.7841C10.0004 23.6321 9.75236 23.6321 9.59236 23.7841C9.44036 23.9361 9.44836 24.1841 9.60036 24.3361L10.6884 25.4241L2.89636 33.2001L5.63236 35.9361L13.4164 28.1521L14.5204 29.2561C14.6724 29.4081 14.9204 29.4001 15.0644 29.2561C15.2164 29.1041 15.2164 28.8561 15.0724 28.7041L14.6644 28.2881Z" fill="white"/>
<path d="M17.2296 17.5155L16.1152 18.6299L20.2164 22.7311L21.3308 21.6167L17.2296 17.5155Z" fill="white"/>
<path d="M28.6963 11.0641L27.7843 10.1521L26.7923 11.1441L23.6243 11.3761L17.2323 17.5201L21.3363 21.6161L27.2563 15.6961L27.6403 12.8561L27.7043 12.0561L28.6963 11.0641Z" fill="white"/>
<path opacity="0.21" d="M19.5283 22.0479L13.9683 27.5999L12.6083 26.2399L18.1603 20.6799L19.5283 22.0479Z" fill="white"/>
<path opacity="0.21" d="M11.9044 27.0081L13.2324 28.3441L5.63238 35.9361L4.31238 34.6161L11.9044 27.0081Z" fill="white"/>
<path opacity="0.4" d="M10.355 25.7891L9.96472 26.1794L12.68 28.8947L13.0703 28.5044L10.355 25.7891Z" fill="white"/>
<path d="M29.2396 9.91197L28.9276 9.60797L36.7116 1.82397L35.5996 3.55197L29.2396 9.91197Z" fill="white"/>
<g opacity="0.33">
<path d="M12.5677 26.2721C12.5437 26.2481 12.5437 26.2241 12.5677 26.2001L18.1277 20.6401C18.1517 20.6161 18.1757 20.6161 18.1997 20.6401C18.2237 20.6641 18.2237 20.6881 18.1997 20.7121L12.6397 26.2721C12.6157 26.2961 12.5917 26.2961 12.5677 26.2721Z" fill="white"/>
</g>
<g opacity="0.33">
<path d="M4.23175 34.608C4.20775 34.584 4.20775 34.56 4.23175 34.536L11.8317 26.936C11.8557 26.912 11.8797 26.912 11.9037 26.936C11.9277 26.96 11.9277 26.984 11.9037 27.008L4.30374 34.608C4.27974 34.632 4.25575 34.632 4.23175 34.608Z" fill="white"/>
</g>
<g opacity="0.53">
<path d="M20.8643 17.1761C21.2133 17.1761 21.4963 16.8932 21.4963 16.5441C21.4963 16.1951 21.2133 15.9121 20.8643 15.9121C20.5153 15.9121 20.2323 16.1951 20.2323 16.5441C20.2323 16.8932 20.5153 17.1761 20.8643 17.1761Z" fill="white"/>
<path d="M23.5766 17.7122C23.8417 17.7122 24.0566 17.4973 24.0566 17.2322C24.0566 16.9671 23.8417 16.7522 23.5766 16.7522C23.3115 16.7522 23.0966 16.9671 23.0966 17.2322C23.0966 17.4973 23.3115 17.7122 23.5766 17.7122Z" fill="white"/>
<path d="M21.2403 19.1602C21.3773 19.1602 21.4883 19.0492 21.4883 18.9122C21.4883 18.7752 21.3773 18.6642 21.2403 18.6642C21.1033 18.6642 20.9923 18.7752 20.9923 18.9122C20.9923 19.0492 21.1033 19.1602 21.2403 19.1602Z" fill="white"/>
<path d="M21.4447 15.0761C21.5478 14.973 21.5478 14.8058 21.4447 14.7027C21.3416 14.5996 21.1744 14.5996 21.0713 14.7027C20.9682 14.8058 20.9682 14.973 21.0713 15.0761C21.1744 15.1792 21.3416 15.1792 21.4447 15.0761Z" fill="white"/>
<path d="M24.4007 15.5923C24.5731 15.5923 24.7127 15.4526 24.7127 15.2803C24.7127 15.1079 24.5731 14.9683 24.4007 14.9683C24.2284 14.9683 24.0887 15.1079 24.0887 15.2803C24.0887 15.4526 24.2284 15.5923 24.4007 15.5923Z" fill="white"/>
<path d="M25.4286 13.4255C25.5754 13.2787 25.5754 13.0406 25.4286 12.8938C25.2818 12.747 25.0437 12.747 24.8969 12.8938C24.75 13.0406 24.75 13.2787 24.8969 13.4255C25.0437 13.5724 25.2818 13.5724 25.4286 13.4255Z" fill="white"/>
</g>
<path d="M16.7998 19.3156L11.2391 24.8762L13.977 27.6141L19.5377 22.0535L16.7998 19.3156Z" stroke="white" stroke-miterlimit="9.9999" stroke-linecap="round" stroke-linejoin="round"/>
<path d="M20.7758 22.176L16.6718 18.072" stroke="white" stroke-width="3" stroke-miterlimit="10" stroke-linecap="round" stroke-linejoin="round"/>
<path opacity="0.38" d="M16.1084 18.6203L10.5477 24.1809L14.6489 28.2821L20.2095 22.7215L16.1084 18.6203Z" fill="white"/>
<path d="M10.4899 25.6216L2.89844 33.213L5.63633 35.9509L13.2278 28.3595L10.4899 25.6216Z" stroke="white" stroke-miterlimit="9.9999" stroke-linecap="round" stroke-linejoin="round"/>
<path d="M28.5436 10.9121L29.2876 10.0721L29.2636 9.93606L28.9036 9.57606L28.7676 9.56006L27.9276 10.3041L28.5436 10.9121Z" fill="white"/>
<path d="M28.5436 10.9121L29.2876 10.0721C29.3196 10.0401 29.3116 9.98407 29.2636 9.93607L28.9036 9.57607C28.8636 9.53607 28.7996 9.52807 28.7676 9.55207L27.9276 10.2961L28.5436 10.9121Z" stroke="#091A7A" stroke-width="5" stroke-miterlimit="10" stroke-linecap="round" stroke-linejoin="round"/>
<path opacity="0.16" d="M29.3036 9.63204L35.9036 3.04004L35.5996 3.55204L29.4076 9.73604L29.3036 9.63204Z" fill="white"/>
<path d="M36.712 1.8241L35.088 4.0641L35.6 3.5521L36.712 1.8241Z" fill="white"/>
<path opacity="0.38" d="M26.7843 11.136L26.2083 11.36C24.6163 11.992 23.1603 12.944 21.9523 14.16L17.9123 18.2L17.2323 17.52L23.5043 11.248L26.7843 11.136Z" fill="white"/>
<path opacity="0.11" d="M27.6081 11.8881L27.2561 12.7761C26.7041 14.1681 25.8801 15.4321 24.8161 16.4881L20.5441 20.7601L21.2241 21.4401L27.4961 15.1681L27.6081 11.8881Z" fill="white"/>
<path d="M27.4716 15.216L27.7036 12.048L28.6956 11.056L27.7836 10.144L26.7916 11.136L23.6236 11.368C23.4316 11.392 23.2716 11.464 23.1596 11.584L10.5516 24.184L14.6556 28.288L27.2556 15.688C27.3756 15.576 27.4556 15.4 27.4716 15.216Z" stroke="white" stroke-miterlimit="10" stroke-linecap="round" stroke-linejoin="round"/>
<path d="M17.2285 17.5069L16.1141 18.6213L20.221 22.7282L21.3354 21.6138L17.2285 17.5069Z" stroke="white" stroke-miterlimit="9.9999" stroke-linecap="round" stroke-linejoin="round"/>
<path opacity="0.4" d="M9.3683 23.7361L15.1043 29.4721C15.1043 29.4721 14.7043 29.8161 14.3683 29.4721C14.0243 29.1281 9.3763 24.4801 9.3763 24.4801C9.3763 24.4801 9.0643 24.0401 9.3683 23.7361Z" fill="white"/>
<path d="M15.0957 29.472C14.8957 29.672 14.5597 29.672 14.3597 29.472L9.36765 24.48C9.16765 24.28 9.16765 23.944 9.36765 23.744C9.56765 23.544 9.90365 23.544 10.1037 23.744L15.0957 28.736C15.3037 28.936 15.3037 29.264 15.0957 29.472Z" stroke="white" stroke-miterlimit="10" stroke-linecap="round" stroke-linejoin="round"/>
<path d="M37.9764 7.72803L36.4164 3.93604L34.8564 7.72803C34.6964 8.12003 34.6804 8.58403 34.8564 9.00803C35.2084 9.87204 36.2004 10.28 37.0564 9.92803C37.9204 9.57603 38.3364 8.59203 37.9764 7.72803Z" fill="white"/>
<path opacity="0.32" d="M36.424 4.4801L35.96 7.8801C35.92 8.1521 35.672 8.3441 35.4 8.3041C35.128 8.2641 34.936 8.0161 34.976 7.7441C34.984 7.6961 35 7.6481 35.016 7.6081L36.424 4.4801Z" fill="white"/>
<path d="M37.9764 7.72803L36.4164 3.93604L34.8564 7.72803C34.6964 8.12003 34.6804 8.58403 34.8564 9.00803C35.2084 9.87203 36.2004 10.28 37.0564 9.92803C37.9204 9.57603 38.3364 8.59203 37.9764 7.72803Z" stroke="white" stroke-miterlimit="10" stroke-linecap="round" stroke-linejoin="round"/>
</svg>
